<svg xmlns="http://www.w3.org/2000/svg" xmlns:xlink="http://www.w3.org/1999/xlink" width="866" height="621" viewBox="0 0 866 621">
    <defs>
        <path id="a" d="M0 621h870V.479H0z"/>
    </defs>
    <g fill="none" fill-rule="evenodd">
        <path fill="#E4DBD7" d="M19 594h683H19z"/>
        <path stroke="#8EAFDB" stroke-linecap="round" stroke-linejoin="round" stroke-width="3" d="M19 594h683"/>
        <path fill="#E4DBD7" d="M736 594h96-96z"/>
        <path stroke="#8EAFDB" stroke-linecap="round" stroke-linejoin="round" stroke-width="3" d="M736 594h96"/>
        <path fill="#E4DBD7" d="M114 607h341-341z"/>
        <path stroke="#8EAFDB" stroke-linecap="round" stroke-linejoin="round" stroke-width="3" d="M114 607h341"/>
        <path fill="#E4DBD7" d="M525 607h267-267z"/>
        <path stroke="#8EAFDB" stroke-linecap="round" stroke-linejoin="round" stroke-width="3" d="M525 607h267"/>
        <path fill="#E4DBD7" d="M71 619h306H71z"/>
        <path stroke="#8EAFDB" stroke-linecap="round" stroke-linejoin="round" stroke-width="3" d="M71 619h306"/>
        <path fill="#E4DBD7" d="M414 619h349-349z"/>
        <path stroke="#8EAFDB" stroke-linecap="round" stroke-linejoin="round" stroke-width="3" d="M414 619h349"/>
        <path fill="#B3C8E3" d="M-4 583h867H-4z"/>
        <path stroke="#3D62AD" stroke-linecap="round" stroke-linejoin="round" stroke-width="3" d="M-3.565 584.714h867.13"/>
        <path fill="#D5C3AA" d="M265.086 199.954l9.711-19.935a1.86 1.86 0 0 0-3.153-1.94l-1.526 2.01c-.331.438-1.028.152-.958-.393l1.531-11.93c.305-2.375-1.769-4.428-4.124-4.86l-3.85-.707a5.035 5.035 0 0 0-5.943 5.048l-4.034 31.239"/>
        <path stroke="#3D62AD" stroke-linecap="round" stroke-linejoin="round" stroke-width="3" d="M265.086 199.954l9.711-19.935a1.86 1.86 0 0 0-3.153-1.94l-1.526 2.01c-.331.438-1.028.152-.958-.393l1.531-11.93c.305-2.375-1.769-4.428-4.124-4.86l-3.85-.707a5.035 5.035 0 0 0-5.943 5.048l-4.034 31.239"/>
        <path fill="#D5C3AA" d="M373.106 316.144l5.847-21.028 7.775 18.272v5.549z"/>
        <path stroke="#3D62AD" stroke-linecap="round" stroke-linejoin="round" stroke-width="3" d="M373.106 316.144l5.847-21.028 7.775 18.272v5.549l-13.622-2.793"/>
        <path fill="#FEFEFE" d="M373.106 316.144l-8.941 28.41-15.152-39.47-4.2-.49a14.155 14.155 0 0 0-9.978-4.1h-4.658c0 6.51-14.55 11.789-14.55 11.789s-14.55-5.279-14.55-11.789h-3.832c-.912 0-1.76.132-2.548.371l-33.62-28.5a9.002 9.002 0 0 1-3.043-8.44l11.978-67.532-19.072-3.384-13.717 77.328a9.691 9.691 0 0 0 2.388 8.227l38.8 35.996a18.32 18.32 0 0 1 5.858 13.386l.005 1.977.56 62.28c.069 1.438 1.527 2.573 3.301 2.573h57.674c1.775 0 3.232-1.135 3.3-2.572V355.34l2.938 12.194c1.408 5.737 6.465 9.692 12.349 9.692.084 0 .17-.001.254-.003 5.992-.116 11.016-4.297 12.22-10.169l9.858-48.118-13.622-2.793z"/>
        <path stroke="#3D62AD" stroke-linecap="round" stroke-linejoin="round" stroke-width="3" d="M373.106 316.144l-8.941 28.41-15.152-39.47-4.2-.49a14.155 14.155 0 0 0-9.978-4.1h-4.658c0 6.51-14.55 11.789-14.55 11.789s-14.55-5.279-14.55-11.789h-3.832c-.912 0-1.76.132-2.548.371l-33.62-28.5a9.002 9.002 0 0 1-3.043-8.44l11.978-67.532-19.072-3.384-13.717 77.328a9.691 9.691 0 0 0 2.388 8.227l38.8 35.996a18.32 18.32 0 0 1 5.858 13.386l.005 1.977.56 62.28c.069 1.438 1.527 2.573 3.301 2.573h57.674c1.775 0 3.232-1.135 3.3-2.572V355.34l2.938 12.194c1.408 5.737 6.465 9.692 12.349 9.692.084 0 .17-.001.254-.003 5.992-.116 11.016-4.297 12.22-10.169l9.858-48.118-13.622-2.793z"/>
        <path fill="#51BC86" d="M302.675 437.627h4.109c6.152 0 13.325-.008 19.103-.488l53.305 115.74 15.449-5.785-45.426-152.318h-64.03v172.065h16.497l14.754-129.119s14.861.02 18.719-3.354"/>
        <path stroke="#3D62AD" stroke-linecap="round" stroke-linejoin="round" stroke-width="3" d="M302.675 437.627h4.109c6.152 0 13.325-.008 19.103-.488l53.305 115.74 15.449-5.785-45.426-152.318h-64.03v172.065h16.497l14.754-129.119s14.861.02 18.719-3.354"/>
        <path fill="#668FC9" d="M379.005 552.95l5.472 14.62a2.262 2.262 0 0 0 2.913 1.325l32.276-12.086c2.119-.794 1.89-3.86-.32-4.333l-24.892-5.312-15.449 5.785z"/>
        <path stroke="#3D62AD" stroke-linecap="round" stroke-linejoin="round" stroke-width="3" d="M379.005 552.95l5.472 14.62a2.262 2.262 0 0 0 2.913 1.325l32.276-12.086c2.119-.794 1.89-3.86-.32-4.333l-24.892-5.312-15.449 5.785z"/>
        <path fill="#668FC9" d="M301.653 566.84v15.612a2.262 2.262 0 0 1-2.262 2.262h-34.465c-2.262 0-3.124-2.951-1.218-4.169l21.449-13.705h16.496z"/>
        <path stroke="#3D62AD" stroke-linecap="round" stroke-linejoin="round" stroke-width="3" d="M301.653 566.84v15.612a2.262 2.262 0 0 1-2.262 2.262h-34.465c-2.262 0-3.124-2.951-1.218-4.169l21.449-13.705h16.496z"/>
        <path fill="#668FC9" d="M305.62 282.456l.26 11.6c-1.781 1.377-3.264 2.627-4.804 4.162-6.19 6.164-16.8 4.462-20.395-3.501-.584-1.296-.918-2.612-.918-3.887-5.502 0-9.963-4.462-9.963-9.965 0-5.504 4.46-10.852 9.963-10.852-10.652 0-19.287-8.637-19.287-19.292 0-10.653 8.635-19.29 19.287-19.29v-.342c0-10.655 8.636-19.292 19.287-19.292l-.146-.286h.357a7.755 7.755 0 0 1 7.753-7.756H325.137c10.653 0 19.288 8.638 19.288 19.292h.342c10.651 0 19.287 9.465 19.287 20.12v-.234.234c7.283 0 13.187 5.905 13.187 13.19 0 7.284-5.904 13.795-13.187 13.795 3.762 0 7.608 7.03 7.608 10.792v3.377c0 10.655-10.028 20.764-22.649 20.764-11.486 0-21.549-6.324-26.913-10.549-1.638-3.176 5.12-7.764 5.12-11.736 0 0 12.336-8.295 12.336-22.887v-18.836s-24.998 1.408-26.16-21.716c-14.334 0-18.934 12.96-18.934 19.858s-1.68 14.005-1.68 14.005-1.769 22.094 12.838 29.232"/>
        <path stroke="#3D62AD" stroke-linecap="round" stroke-linejoin="round" stroke-width="3" d="M305.62 282.456l.26 11.6c-1.781 1.377-3.264 2.627-4.804 4.162-6.19 6.164-16.8 4.462-20.395-3.501-.584-1.296-.918-2.612-.918-3.887-5.502 0-9.963-4.462-9.963-9.965 0-5.504 4.46-10.852 9.963-10.852-10.652 0-19.287-8.637-19.287-19.292 0-10.653 8.635-19.29 19.287-19.29v-.342c0-10.655 8.636-19.292 19.287-19.292l-.146-.286h.357a7.755 7.755 0 0 1 7.753-7.756H325.137c10.653 0 19.288 8.638 19.288 19.292h.342c10.651 0 19.287 9.465 19.287 20.12v-.234.234c7.283 0 13.187 5.905 13.187 13.19 0 7.284-5.904 13.795-13.187 13.795 3.762 0 7.608 7.03 7.608 10.792v3.377c0 10.655-10.028 20.764-22.649 20.764-11.486 0-21.549-6.324-26.913-10.549-1.638-3.176 5.12-7.764 5.12-11.736 0 0 12.336-8.295 12.336-22.887v-18.836s-24.998 1.408-26.16-21.716c-14.334 0-18.934 12.96-18.934 19.858s-1.68 14.005-1.68 14.005-1.769 22.094 12.838 29.232z"/>
        <path fill="#283237" d="M319.036 224.256h.341"/>
        <path fill="#D5C3AA" d="M305.62 282.456v11.6l-6.562 6.563s.511 12.77 16.569 12.77 16.338-12.508 16.338-12.508l-4.744-7.255v-9.133s-19.754-7.664-21.601-2.037"/>
        <path stroke="#3D62AD" stroke-linecap="round" stroke-linejoin="round" stroke-width="3" d="M305.62 282.456v11.6l-6.562 6.563s.511 12.77 16.569 12.77 16.338-12.508 16.338-12.508l-4.744-7.255v-9.133s-19.754-7.664-21.601-2.037z"/>
        <path fill="#D5C3AA" d="M340.18 253.79v4.467a32.955 32.955 0 0 1-13.012 26.236l-.944.718a15.033 15.033 0 0 1-17.443.536l-1.682-1.123a32.953 32.953 0 0 1-14.66-27.41v-5.645s2.285-1.036 1.697-10.665c-.587-9.63 5.353-21.543 19.26-21.543.663 7.938 5.308 21.715 26.16 21.715l.624 12.714z"/>
        <path stroke="#3D62AD" stroke-linecap="round" stroke-linejoin="round" stroke-width="3" d="M340.18 253.79v4.467a32.955 32.955 0 0 1-13.012 26.236l-.944.718a15.033 15.033 0 0 1-17.443.536l-1.682-1.123a32.953 32.953 0 0 1-14.66-27.41v-5.645s2.285-1.036 1.697-10.665c-.587-9.63 5.353-21.543 19.26-21.543.663 7.938 5.308 21.715 26.16 21.715l.624 12.714z"/>
        <path fill="#3D62AD" d="M305.536 248.305a1.591 1.591 0 1 0-3.182 0 1.591 1.591 0 0 0 3.182 0M330.404 248.305a1.591 1.591 0 1 0-3.182 0 1.591 1.591 0 0 0 3.182 0"/>
        <path stroke="#3D62AD" stroke-linecap="round" stroke-linejoin="round" stroke-width="3" d="M313.51 264.675a5.868 5.868 0 0 0 5.867-5.869v-12.515"/>
        <path stroke="#668FC9" stroke-linecap="round" stroke-linejoin="round" stroke-width="3" d="M322.1 271.994c0 2.54-2.297 4.597-5.131 4.597s-5.132-2.058-5.132-4.597H322.1zM303.296 241.468a4.89 4.89 0 0 0-4.89 4.89M334.41 246.358a4.89 4.89 0 0 0-4.89-4.89"/>
        <path stroke="#3D62AD" stroke-linecap="round" stroke-linejoin="round" stroke-width="3" d="M284.065 254.04c2.892.245 5.14-.782 6.722-1.96 1.83-1.36 2.994-3.442 3.28-5.704.205-1.616.395-3.975.395-7.158 0-6.897 4.6-19.856 18.934-19.856.582 11.56 7.121 16.99 13.515 19.527 5.71 2.267 11.552 3.144 17.432 1.366l4.543-2.001"/>
        <path fill="#B3C8E3" d="M285.185 408.194l9.024-9.025"/>
        <path stroke="#3D62AD" stroke-linecap="round" stroke-linejoin="round" stroke-width="3" d="M285.185 408.194l9.024-9.025"/>
        <path fill="#B3C8E3" d="M348.886 408.194l-8.864-8.866"/>
        <path stroke="#3D62AD" stroke-linecap="round" stroke-linejoin="round" stroke-width="3" d="M348.886 408.194l-8.864-8.866"/>
        <path fill="#FEFEFE" d="M305.503 327.32h20.384"/>
        <path stroke="#3D62AD" stroke-linecap="round" stroke-linejoin="round" stroke-width="5" d="M305.503 327.32h20.384"/>
        <path fill="#FEFEFE" d="M308.252 331.8h14.886"/>
        <path stroke="#3D62AD" stroke-linecap="round" stroke-linejoin="round" stroke-width="5" d="M308.252 331.8h14.886"/>
        <path fill="#FEFEFE" d="M311.281 336.28h8.828"/>
        <path stroke="#3D62AD" stroke-linecap="round" stroke-linejoin="round" stroke-width="5" d="M311.281 336.28h8.828"/>
        <path stroke="#3D62AD" stroke-linecap="round" stroke-linejoin="round" stroke-width="3" d="M308.252 327.32s-9.194-8.105-9.194-26.7M322.624 327.32s9.195-8.105 9.195-26.7"/>
        <path fill="#F0F0F1" d="M435.134 293.526l-79.939 1.968a5.178 5.178 0 0 1-5.193-4.11l-.676-3.203a5.18 5.18 0 0 1 3.094-5.856l73.934-30.468"/>
        <path stroke="#3D62AD" stroke-linecap="round" stroke-linejoin="round" stroke-width="3" d="M435.134 293.526l-79.939 1.968a5.178 5.178 0 0 1-5.193-4.11l-.676-3.203a5.18 5.18 0 0 1 3.094-5.856l73.934-30.468"/>
        <path fill="#B3C8E3" d="M368.94 275.155l-16.52 7.17a5.178 5.178 0 0 0-3.093 5.856l.675 3.204a5.178 5.178 0 0 0 5.194 4.109l17.91-.441-2.655-5.267a17.265 17.265 0 0 1-1.824-8.676l.313-5.955"/>
        <path stroke="#3D62AD" stroke-linecap="round" stroke-linejoin="round" stroke-width="3" d="M368.94 275.155l-16.52 7.17a5.178 5.178 0 0 0-3.093 5.856l.675 3.204a5.178 5.178 0 0 0 5.194 4.109l17.91-.441-2.655-5.267a17.265 17.265 0 0 1-1.824-8.676l.313-5.955"/>
        <path fill="#F0F0F1" d="M378.952 295.116l1.384 18.676c.252 2.957 3.834 5.012 7.96 4.566 4.126-.447 7.297-3.23 7.045-6.187a1.783 1.783 0 0 0-1.578-1.643 7.92 7.92 0 0 1-6.986-6.836 7.928 7.928 0 0 1 6.822-8.897c.151-.021.301-.026.45-.037l-.092-1.263c-.252-2.957-3.834-5.011-7.96-4.566-4.127.446-7.297 3.23-7.045 6.187"/>
        <path stroke="#3D62AD" stroke-linecap="round" stroke-linejoin="round" stroke-width="3" d="M378.952 295.116l1.384 18.676c.252 2.957 3.834 5.012 7.96 4.566 4.126-.447 7.297-3.23 7.045-6.187a1.783 1.783 0 0 0-1.578-1.643 7.92 7.92 0 0 1-6.986-6.836 7.928 7.928 0 0 1 6.822-8.897c.151-.021.301-.026.45-.037l-.092-1.263c-.252-2.957-3.834-5.011-7.96-4.566-4.127.446-7.297 3.23-7.045 6.187z"/>
        <path fill="#FEFEFE" d="M449.454 297.938c-8.688 2.134-25.04 3.29-31.276-22.111-6.234-25.402 8.795-31.95 17.484-34.083"/>
        <path stroke="#3D62AD" stroke-linecap="round" stroke-linejoin="round" stroke-width="3" d="M449.454 297.938c-8.688 2.134-25.04 3.29-31.276-22.111-6.234-25.402 8.795-31.95 17.484-34.083"/>
        <path fill="#D5C3AA" d="M435.662 241.744c8.689-2.134 18.82 8.716 22.628 24.234 3.81 15.518-.147 29.826-8.835 31.96-8.69 2.133-18.821-8.717-22.63-24.234-3.808-15.518.148-29.827 8.837-31.96"/>
        <path stroke="#3D62AD" stroke-linecap="round" stroke-linejoin="round" stroke-width="3" d="M435.662 241.744c8.689-2.134 18.82 8.716 22.628 24.234 3.81 15.518-.147 29.826-8.835 31.96-8.69 2.133-18.821-8.717-22.63-24.234-3.808-15.518.148-29.827 8.837-31.96z"/>
        <path fill="#8EAFDB" d="M430.225 280.899l10.018-2.46c3.182-.78 4.93-4.805 3.903-8.989-1.027-4.182-4.438-6.94-7.62-6.158l-9.832 2.414"/>
        <path stroke="#3D62AD" stroke-linecap="round" stroke-linejoin="round" stroke-width="3" d="M430.225 280.899l10.018-2.46c3.182-.78 4.93-4.805 3.903-8.989-1.027-4.182-4.438-6.94-7.62-6.158l-9.832 2.414"/>
        <path stroke="#3D62AD" stroke-linecap="round" stroke-linejoin="round" stroke-width="3" d="M435.662 241.744c8.689-2.134 18.82 8.716 22.628 24.234 3.81 15.518-.147 29.826-8.835 31.96-8.69 2.133-18.821-8.717-22.63-24.234-3.808-15.518.148-29.827 8.837-31.96z"/>
        <path stroke="#3D62AD" stroke-linecap="round" stroke-linejoin="round" stroke-width="3" d="M435.662 241.744c8.689-2.134 18.82 8.716 22.628 24.234 3.81 15.518-.147 29.826-8.835 31.96-8.69 2.133-18.821-8.717-22.63-24.234-3.808-15.518.148-29.827 8.837-31.96z"/>
        <path fill="#FEFEFE" d="M364.165 344.555l-3.005 10.93"/>
        <path stroke="#3D62AD" stroke-linecap="round" stroke-linejoin="round" stroke-width="3" d="M364.165 344.555l-3.005 10.93"/>
        <path fill="#FEFEFE" d="M349.11 355.34l-4.656-23.54"/>
        <path stroke="#3D62AD" stroke-linecap="round" stroke-linejoin="round" stroke-width="3" d="M349.11 355.34l-4.656-23.54"/>
        <path fill="#D5C3AA" d="M393.783 292.144s10.563 5.35 1.927 20.027c-.123-.024-.244-.05-.364-.075-9.728-2.071-12.753-11.579-5.513-16.997l3.95-2.955"/>
        <path stroke="#3D62AD" stroke-linecap="round" stroke-linejoin="round" stroke-width="3" d="M393.783 292.144s10.563 5.35 1.927 20.027c-.123-.024-.244-.05-.364-.075-9.728-2.071-12.753-11.579-5.513-16.997l3.95-2.955"/>
        <path fill="#E4DBD7" d="M474.5 159.158l9.711-19.935a1.86 1.86 0 0 0-3.153-1.94l-1.526 2.01c-.332.437-1.028.151-.958-.394l1.531-11.93c.305-2.375-1.769-4.427-4.125-4.86l-3.849-.706a5.038 5.038 0 0 0-5.944 5.048l-4.033 31.239"/>
        <path stroke="#3D62AD" stroke-linecap="round" stroke-linejoin="round" stroke-width="3" d="M474.5 159.158l9.711-19.935a1.86 1.86 0 0 0-3.153-1.94l-1.526 2.01c-.332.437-1.028.151-.958-.394l1.531-11.93c.305-2.375-1.769-4.427-4.125-4.86l-3.849-.706a5.038 5.038 0 0 0-5.944 5.048l-4.033 31.239"/>
        <path fill="#E4DBD7" d="M623.519 159.158l-9.712-19.935a1.86 1.86 0 0 1 3.153-1.94l1.526 2.01c.332.437 1.029.151.958-.394l-1.53-11.93c-.305-2.375 1.769-4.427 4.124-4.86l3.848-.706a5.035 5.035 0 0 1 5.944 5.048l4.034 31.239"/>
        <path stroke="#3D62AD" stroke-linecap="round" stroke-linejoin="round" stroke-width="3" d="M623.519 159.158l-9.712-19.935a1.86 1.86 0 0 1 3.153-1.94l1.526 2.01c.332.437 1.029.151.958-.394l-1.53-11.93c-.305-2.375 1.769-4.427 4.124-4.86l3.848-.706a5.035 5.035 0 0 1 5.944 5.048l4.034 31.239"/>
        <path fill="#FEFEFE" d="M619.043 158.071l-1.046 61.642a16.806 16.806 0 0 1-5.82 11.156l-26.267 22.279a16.343 16.343 0 0 1-10.57 3.88h-52.536a16.343 16.343 0 0 1-10.571-3.88l-26.267-22.28a16.806 16.806 0 0 1-5.815-11.097l-.305-61.565-20.115.11-1.927 62.02.033.804c.795 10.322 5.779 20.084 13.674 26.779l33.663 28.553c3.2 2.715 5.046 6.7 5.046 10.897v15.202l2.79 99.603c.072 1.773 1.623 3.175 3.511 3.175h61.376c1.888 0 3.439-1.402 3.512-3.175l3.596-112.895a14.024 14.024 0 0 1 4.944-10.246l36.683-31.114c7.895-6.696 12.879-16.457 13.675-26.78l.025-.333-1.178-62.355-20.111-.38z"/>
        <path stroke="#3D62AD" stroke-linecap="round" stroke-linejoin="round" stroke-width="3" d="M619.043 158.071l-1.046 61.642a16.806 16.806 0 0 1-5.82 11.156l-26.267 22.279a16.343 16.343 0 0 1-10.57 3.88h-52.536a16.343 16.343 0 0 1-10.571-3.88l-26.267-22.28a16.806 16.806 0 0 1-5.815-11.097l-.305-61.565-20.115.11-1.927 62.02.033.804c.795 10.322 5.779 20.084 13.674 26.779l33.663 28.553c3.2 2.715 5.046 6.7 5.046 10.897v15.202l2.79 99.603c.072 1.773 1.623 3.175 3.511 3.175h61.376c1.888 0 3.439-1.402 3.512-3.175l3.596-112.895a14.024 14.024 0 0 1 4.944-10.246l36.683-31.114c7.895-6.696 12.879-16.457 13.675-26.78l.025-.333-1.178-62.355-20.111-.38z"/>
        <path fill="#B4DDC4" d="M568.524 258.079s-13.542 54.434-20.802 54.434h-1.89c-7.26 0-20.803-54.434-20.803-54.434"/>
        <path stroke="#3D62AD" stroke-linecap="round" stroke-linejoin="round" stroke-width="3" d="M568.524 258.079s-13.542 54.434-20.802 54.434h-1.89c-7.26 0-20.803-54.434-20.803-54.434"/>
        <path fill="#B4DDC4" d="M539.452 256.92v46.652"/>
        <path stroke="#3D62AD" stroke-linecap="round" stroke-linejoin="round" stroke-width="3" d="M539.452 256.92v46.652"/>
        <path fill="#51BC86" d="M550.23 300.027a3.135 3.135 0 1 0-6.27-.002 3.135 3.135 0 0 0 6.27.002"/>
        <path stroke="#3D62AD" stroke-linecap="round" stroke-linejoin="round" stroke-width="3" d="M550.23 300.027a3.135 3.135 0 1 0-6.27-.002 3.135 3.135 0 0 0 6.27.002z"/>
        <path fill="#51BC86" d="M550.23 284.716a3.135 3.135 0 1 0-6.27 0 3.136 3.136 0 1 0 6.27 0"/>
        <path stroke="#3D62AD" stroke-linecap="round" stroke-linejoin="round" stroke-width="3" d="M550.23 284.716a3.135 3.135 0 1 0-6.27 0 3.136 3.136 0 1 0 6.27 0z"/>
        <path fill="#51BC86" d="M550.23 269.405a3.136 3.136 0 1 0-6.27-.001 3.136 3.136 0 0 0 6.27.001"/>
        <path stroke="#3D62AD" stroke-linecap="round" stroke-linejoin="round" stroke-width="3" d="M550.23 269.405a3.136 3.136 0 1 0-6.27-.001 3.136 3.136 0 0 0 6.27.001z"/>
        <path fill="#51BC86" d="M548.672 419.476l14.284 147.364h16.497V403.682h-64.03V566.84h16.497l13.887-140.848a12.13 12.13 0 0 1 12.047-10.72h4.11"/>
        <path stroke="#3D62AD" stroke-linecap="round" stroke-linejoin="round" stroke-width="3" d="M548.672 419.476l14.284 147.364h16.497V403.682h-64.03V566.84h16.497l13.887-140.848a12.13 12.13 0 0 1 12.047-10.72h4.11"/>
        <path fill="#668FC9" d="M514.566 566.84v15.612a2.262 2.262 0 0 0 2.263 2.262h34.464c2.262 0 3.125-2.951 1.219-4.169l-21.45-13.705h-16.496z"/>
        <path stroke="#3D62AD" stroke-linecap="round" stroke-linejoin="round" stroke-width="3" d="M514.566 566.84v15.612a2.262 2.262 0 0 0 2.263 2.262h34.464c2.262 0 3.125-2.951 1.219-4.169l-21.45-13.705h-16.496z"/>
        <path fill="#668FC9" d="M562.985 566.84v15.612a2.262 2.262 0 0 0 2.262 2.262h34.465c2.261 0 3.124-2.951 1.218-4.169l-21.45-13.705h-16.495z"/>
        <path stroke="#3D62AD" stroke-linecap="round" stroke-linejoin="round" stroke-width="3" d="M562.985 566.84v15.612a2.262 2.262 0 0 0 2.262 2.262h34.465c2.261 0 3.124-2.951 1.218-4.169l-21.45-13.705h-16.495z"/>
        <path fill="#E4DBD7" d="M534.894 250.655v8.329l1.524 1.236a16.962 16.962 0 0 0 21.47-.076l1.408-1.16v-8.329"/>
        <path stroke="#3D62AD" stroke-linecap="round" stroke-linejoin="round" stroke-width="3" d="M534.894 250.655v8.329l1.524 1.236a16.962 16.962 0 0 0 21.47-.076l1.408-1.16v-8.329"/>
        <path fill="#E4DBD7" d="M546.735 210.586s-20.305-1.105-23.285-3.981c-2.98-2.876-10.083-16.662-3.18-21.505 6.906-4.843 19.077-12.043 32.735-7.325 13.657 4.717 18.924 1.736 20.388 8.07 1.464 6.334 1.422 7.27.711 11.55-.711 4.281-4.085 17.171-27.37 13.19"/>
        <path stroke="#3D62AD" stroke-linecap="round" stroke-linejoin="round" stroke-width="3" d="M546.735 210.586s-20.305-1.105-23.285-3.981c-2.98-2.876-10.083-16.662-3.18-21.505 6.906-4.843 19.077-12.043 32.735-7.325 13.657 4.717 18.924 1.736 20.388 8.07 1.464 6.334 1.422 7.27.711 11.55-.711 4.281-4.085 17.171-27.37 13.19z"/>
        <path fill="#E4DBD7" d="M570.635 214.233s6.938-.602 6.938 6.107c-2.498 6.723-6.938 6.723-6.938 6.723v-12.83z"/>
        <path stroke="#3D62AD" stroke-linecap="round" stroke-linejoin="round" stroke-width="3" d="M570.635 214.233s6.938-.602 6.938 6.107c-2.498 6.723-6.938 6.723-6.938 6.723v-12.83z"/>
        <g>
            <path fill="#E4DBD7" d="M520.099 214.233c-2.309 0-4.18 2.734-4.18 6.107 0 3.372 1.871 6.107 4.18 6.107"/>
            <path stroke="#3D62AD" stroke-linecap="round" stroke-linejoin="round" stroke-width="3" d="M520.099 214.233c-2.309 0-4.18 2.734-4.18 6.107 0 3.372 1.871 6.107 4.18 6.107"/>
        </g>
        <g>
            <path fill="#E4DBD7" d="M573.392 201.677v25.567c0 16.485-19.478 26.873-25.013 26.873h-3.204c-5.536 0-25.014-10.388-25.014-26.874v-25.566"/>
            <path stroke="#3D62AD" stroke-linecap="round" stroke-linejoin="round" stroke-width="3" d="M573.392 201.677v25.567c0 16.485-19.478 26.873-25.013 26.873h-3.204c-5.536 0-25.014-10.388-25.014-26.874v-25.566"/>
        </g>
        <path fill="#3D62AD" d="M539.452 215.99a1.663 1.663 0 1 0-3.326-.001 1.663 1.663 0 0 0 3.326 0M562.464 215.99a1.663 1.663 0 1 0-3.326-.001 1.663 1.663 0 0 0 3.326 0"/>
        <path stroke="#668FC9" stroke-linecap="round" stroke-linejoin="round" stroke-width="4" d="M541.962 208.03c-1.267-.5-2.912-.742-4.69-.62-1.902.131-3.597.657-4.802 1.402M556.96 208.03c1.267-.5 2.913-.742 4.69-.62 1.901.131 3.597.657 4.802 1.402"/>
        <path stroke="#668FC9" stroke-linecap="round" stroke-linejoin="round" stroke-width="2" d="M545.09 240.08c1.27 1.433 3.403 2.374 5.82 2.374 2.416 0 4.548-.94 5.819-2.374"/>
        <path stroke="#3D62AD" stroke-linecap="round" stroke-linejoin="round" stroke-width="3" d="M546.07 231.315s.053 1.8 4.399 1.819c4.344.018 2.805-3.754 2.01-7.472l-1.716-8.01"/>
        <path stroke="#51BC86" stroke-linecap="round" stroke-linejoin="round" stroke-width="2" d="M520.271 201.677c0-13.605 11.129-23.902 24.73-23.902h3.662c13.602 0 24.73 10.297 24.73 23.902"/>
        <path fill="#3D62AD" d="M559.254 240.086c-.494 2.28-2.268 6.4-8.38 6.4-5.733 0-7.649-3.724-8.273-5.965-.358-1.288.534-2.584 1.868-2.67 1.74-.11 4.105-.337 5.346-.785a3.115 3.115 0 0 1 2.119 0c1.316.475 3.897.701 5.655.805a1.819 1.819 0 0 1 1.665 2.215m3.198-1.277c-2.075-4.58-11.95-5.204-11.95-5.204s-9.874.625-11.949 5.204c-2.075 4.581-2.576 11.193 3.71 14.341 6.287 3.148 8.239 2.456 8.239 2.456s1.953.692 8.239-2.456c6.286-3.148 5.785-9.76 3.71-14.34M538.237 178.657s3.837 5.364 17.978 5.364c8.634 3.054 13.587 5.83 14.42 13.048.832 7.216 2.757 17.164 2.757 17.164s4.18-3.286 4.18-9.948V193.46l2.975 2.986s-1.31-22.14-22.155-26.026c-20.77-3.873-20.155 5.274-20.155 5.274s-8.186-5.338-17.966 4.441c-1.883 1.883-3.857 3.915-4.362 9.591l2.1-.43s-3.716 4.22-3.438 12.381c.278 8.162 5.528 12.557 5.528 12.557l4.594-14.28s7.777-12.76 13.544-21.296"/>
        <path stroke="#3D62AD" stroke-linecap="round" stroke-linejoin="round" stroke-width="3" d="M538.237 178.657s3.837 5.364 17.978 5.364c8.634 3.054 13.587 5.83 14.42 13.048.832 7.216 2.757 17.164 2.757 17.164s4.18-3.286 4.18-9.948V193.46l2.975 2.986s-1.31-22.14-22.155-26.026c-20.77-3.873-20.155 5.274-20.155 5.274s-8.186-5.338-17.966 4.441c-1.883 1.883-3.857 3.915-4.362 9.591l2.1-.43s-3.716 4.22-3.438 12.381c.278 8.162 5.528 12.557 5.528 12.557l4.594-14.28s7.777-12.76 13.544-21.296z"/>
        <path stroke="#3D62AD" stroke-width="30" d="M530.298 78.874s2.457 4.715 10.118 4.715"/>
        <path fill="#D5C3AA" d="M661.657 128.787H416.594a2.253 2.253 0 0 1-2.252-2.254V4.298a2.253 2.253 0 0 1 2.252-2.254h245.063a2.253 2.253 0 0 1 2.253 2.254v122.235a2.253 2.253 0 0 1-2.253 2.254"/>
        <path stroke="#3D62AD" stroke-linecap="round" stroke-linejoin="round" stroke-width="3" d="M661.657 128.787H416.594a2.253 2.253 0 0 1-2.252-2.254V4.298a2.253 2.253 0 0 1 2.252-2.254h245.063a2.253 2.253 0 0 1 2.253 2.254v122.235a2.253 2.253 0 0 1-2.253 2.254z"/>
        <path fill="#D2E9DA" d="M606.466 116.078h-134.68c-23.117 0-41.858-18.744-41.858-41.866V56.619c0-23.12 18.74-41.866 41.858-41.866h134.68c23.117 0 41.857 18.745 41.857 41.866v17.593c0 23.122-18.74 41.866-41.857 41.866"/>
        <path stroke="#3D62AD" stroke-linecap="round" stroke-linejoin="round" stroke-width="3" d="M606.466 116.078h-134.68c-23.117 0-41.858-18.744-41.858-41.866V56.619c0-23.12 18.74-41.866 41.858-41.866h134.68c23.117 0 41.857 18.745 41.857 41.866v17.593c0 23.122-18.74 41.866-41.857 41.866z"/>
        <path fill="#89CCA6" d="M584.515 66.298c0-25.074-20.322-45.4-45.39-45.4-25.067 0-45.389 20.326-45.389 45.4 0 25.074 20.322 45.399 45.39 45.399 25.067 0 45.39-20.325 45.39-45.4"/>
        <path stroke="#3D62AD" stroke-linecap="round" stroke-linejoin="round" stroke-width="3" d="M584.515 66.298c0-25.074-20.322-45.4-45.39-45.4-25.067 0-45.389 20.326-45.389 45.4 0 25.074 20.322 45.399 45.39 45.399 25.067 0 45.39-20.325 45.39-45.4z"/>
        <text fill="#E4DBD7" font-family="Calibre-Bold, Calibre" font-size="91.332" font-weight="bold" transform="translate(-5 -6)">
            <tspan x="525" y="86">$</tspan>
        </text>
        <g>
            <path stroke="#3D62AD" stroke-linecap="round" stroke-linejoin="round" stroke-width="3" d="M535.857 94.079h10.148v-7.417c7.69-1.5 13.081-6.55 13.081-14.362 0-7.337-4.201-11.677-11.971-13.571l-8.642-2.13c-2.457-.631-3.805-1.658-3.805-3.788 0-2.367 2.14-3.945 5.39-3.945 3.569 0 5.71 1.736 6.74 4.103h11.734c-1.19-6.628-5.312-11.52-12.527-13.178v-7.417h-10.148v7.181c-8.008 1.341-13.32 6.786-13.32 14.36 0 8.128 5.233 11.6 11.734 13.178l7.85 1.815c3.25.789 4.756 1.735 4.756 4.182 0 2.604-2.3 4.182-5.63 4.182-3.646 0-6.183-1.5-7.214-4.498h-12.368c1.27 7.496 6.502 12.31 14.192 13.808v7.497z"/>
            <path fill="#51BC86" d="M455.193 9.384H428.2c-2.968 0-5.374 2.394-5.374 5.347v26.845c0 1.278 1.697 1.735 2.344.63l3.788-6.46a56.218 56.218 0 0 1 20.173-20.122l6.697-3.91c1.106-.645.646-2.33-.636-2.33M655.081 41.586V14.72c0-2.953-2.405-5.347-5.373-5.347h-26.972c-1.284 0-1.743 1.689-.634 2.332l6.492 3.77a56.215 56.215 0 0 1 20.217 20.079l3.928 6.664c.649 1.1 2.342.644 2.342-.633M455.193 119.404H428.2c-2.968 0-5.374-2.394-5.374-5.348V87.212c0-1.278 1.697-1.735 2.344-.63l3.788 6.46a56.227 56.227 0 0 0 20.173 20.123l6.697 3.908c1.106.646.646 2.331-.636 2.331M655.081 87.202v26.864c0 2.954-2.405 5.348-5.373 5.348h-26.972c-1.284 0-1.743-1.689-.634-2.332l6.492-3.77a56.215 56.215 0 0 0 20.217-20.079l3.928-6.664c.649-1.101 2.342-.644 2.342.633"/>
            <path stroke="#3D62AD" stroke-linecap="round" stroke-linejoin="round" stroke-width="3" d="M549.856 48.904c-1.627-4.737-9.12-5.422-9.12-5.422s-11.922-.096-11.922 9.28 13.248 11.234 13.248 11.234 10.599.876 10.599 8.69c0 10.549-12.365 9.376-12.365 9.376s-5.3.098-10.109-4.687"/>
            <path stroke="#51BC86" stroke-linecap="round" stroke-width="2" d="M539.006 28.883c21.36 0 38.837 20.184 38.837 44.854v20.457"/>
            <path stroke="#51BC86" stroke-linecap="round" stroke-width="2" d="M545.414 29.49s-13.326 53.41-20.47 53.41h-1.86c-7.144 0-20.47-53.41-20.47-53.41"/>
            <path stroke="#3D62AD" stroke-width="30" d="M536.498 84.14s2.454 4.688 10.109 4.688"/>
            <path fill="#D5C3AA" d="M667.734 133.76H422.9a2.246 2.246 0 0 1-2.25-2.24V10.002a2.245 2.245 0 0 1 2.25-2.24h244.834a2.244 2.244 0 0 1 2.25 2.24V131.52a2.245 2.245 0 0 1-2.25 2.24"/>
            <path stroke="#3D62AD" stroke-linecap="round" stroke-linejoin="round" stroke-width="3" d="M667.734 133.76H422.9a2.246 2.246 0 0 1-2.25-2.24V10.002a2.245 2.245 0 0 1 2.25-2.24h244.834a2.244 2.244 0 0 1 2.25 2.24V131.52a2.245 2.245 0 0 1-2.25 2.24z"/>
            <path fill="#D2E9DA" d="M612.594 121.126H478.04c-23.095 0-41.818-18.633-41.818-41.62v-17.49c0-22.985 18.723-41.619 41.818-41.619h134.554c23.095 0 41.818 18.634 41.818 41.62v17.489c0 22.987-18.723 41.62-41.818 41.62"/>
            <path stroke="#3D62AD" stroke-linecap="round" stroke-linejoin="round" stroke-width="3" d="M612.594 121.126H478.04c-23.095 0-41.818-18.633-41.818-41.62v-17.49c0-22.985 18.723-41.619 41.818-41.619h134.554c23.095 0 41.818 18.634 41.818 41.62v17.489c0 22.987-18.723 41.62-41.818 41.62z"/>
            <path fill="#89CCA6" d="M590.664 71.638c0-24.926-20.303-45.132-45.347-45.132S499.97 46.712 499.97 71.638c0 24.927 20.303 45.133 45.347 45.133s45.347-20.206 45.347-45.133"/>
            <path stroke="#3D62AD" stroke-linecap="round" stroke-linejoin="round" stroke-width="3" d="M590.664 71.638c0-24.926-20.303-45.132-45.347-45.132S499.97 46.712 499.97 71.638c0 24.927 20.303 45.133 45.347 45.133s45.347-20.206 45.347-45.133z"/>
        </g>
        <text fill="#E4DBD7" font-family="Calibre-Bold, Calibre" font-size="91.332" font-weight="bold" transform="translate(-5 -6)">
            <tspan x="531" y="93">$</tspan>
        </text>
        <g transform="translate(-5)">
            <path stroke="#3D62AD" stroke-linecap="round" stroke-linejoin="round" stroke-width="3" d="M547.324 102.16h10.16v-7.456c7.7-1.507 13.098-6.585 13.098-14.438 0-7.376-4.207-11.74-11.987-13.644l-8.652-2.141c-2.46-.634-3.81-1.666-3.81-3.808 0-2.38 2.143-3.966 5.397-3.966 3.573 0 5.717 1.745 6.748 4.125h11.748c-1.19-6.663-5.318-11.582-12.542-13.248v-7.456h-10.16v7.22c-8.018 1.347-13.336 6.82-13.336 14.436 0 8.17 5.239 11.66 11.748 13.248l7.858 1.823c3.255.793 4.763 1.745 4.763 4.205 0 2.618-2.302 4.204-5.636 4.204-3.651 0-6.192-1.507-7.223-4.522h-12.384c1.27 7.536 6.51 12.375 14.21 13.882v7.536z"/>
            <path fill="#51BC86" d="M466.56 17.015h-27.026a5.378 5.378 0 0 0-5.38 5.376v26.988c0 1.283 1.699 1.743 2.347.633l3.793-6.496a56.408 56.408 0 0 1 20.198-20.228l6.704-3.93c1.108-.649.648-2.343-.636-2.343M666.696 49.388V22.38a5.377 5.377 0 0 0-5.38-5.376H634.31c-1.285 0-1.744 1.697-.634 2.344l6.5 3.79a56.404 56.404 0 0 1 20.243 20.185l3.932 6.7c.649 1.107 2.345.647 2.345-.636M466.56 127.62h-27.026a5.378 5.378 0 0 1-5.38-5.377V95.256c0-1.284 1.699-1.744 2.347-.634l3.793 6.496a56.41 56.41 0 0 0 20.198 20.229l6.704 3.929c1.108.649.648 2.343-.636 2.343M666.696 95.246v27.007a5.377 5.377 0 0 1-5.38 5.376H634.31c-1.285 0-1.744-1.698-.634-2.345l6.5-3.79a56.404 56.404 0 0 0 20.243-20.185l3.932-6.7c.649-1.106 2.345-.647 2.345.637"/>
            <path stroke="#3D62AD" stroke-linecap="round" stroke-linejoin="round" stroke-width="3" d="M561.34 56.745c-1.63-4.762-9.13-5.451-9.13-5.451s-11.937-.097-11.937 9.33c0 9.425 13.263 11.293 13.263 11.293s10.612.88 10.612 8.736c0 10.605-12.38 9.426-12.38 9.426s-5.306.098-10.12-4.713"/>
            <path stroke="#3D62AD" stroke-width="30" d="M548.573 92.287S551.03 97 558.693 97"/>
            <path fill="#D5C3AA" d="M679.971 142.17H434.834a2.252 2.252 0 0 1-2.253-2.25V17.755a2.253 2.253 0 0 1 2.253-2.252H679.97a2.253 2.253 0 0 1 2.254 2.252v122.163a2.252 2.252 0 0 1-2.254 2.251"/>
            <path stroke="#3D62AD" stroke-linecap="round" stroke-linejoin="round" stroke-width="3" d="M679.971 142.17H434.834a2.252 2.252 0 0 1-2.253-2.25V17.755a2.253 2.253 0 0 1 2.253-2.252H679.97a2.253 2.253 0 0 1 2.254 2.252v122.163a2.252 2.252 0 0 1-2.254 2.251z"/>
            <path fill="#BEE2EC" d="M616.497 125.638H498.308c-23.124 0-41.87-18.733-41.87-41.842v-9.918c0-23.108 18.746-41.841 41.87-41.841h118.189c23.124 0 41.87 18.733 41.87 41.84v9.92c0 23.108-18.746 41.84-41.87 41.84"/>
            <path stroke="#3D62AD" stroke-linecap="round" stroke-linejoin="round" stroke-width="3" d="M616.497 125.638H498.308c-23.124 0-41.87-18.733-41.87-41.842v-9.918c0-23.108 18.746-41.841 41.87-41.841h118.189c23.124 0 41.87 18.733 41.87 41.84v9.92c0 23.108-18.746 41.84-41.87 41.84z"/>
            <path fill="#D5C3AA" d="M599.37 79.652c0-23.162-18.79-41.939-41.968-41.939-23.178 0-41.967 18.777-41.967 41.94 0 23.161 18.79 41.937 41.967 41.937 23.178 0 41.968-18.776 41.968-41.938"/>
            <path stroke="#3D62AD" stroke-linecap="round" stroke-linejoin="round" stroke-width="3" d="M599.37 79.652c0-23.162-18.79-41.939-41.968-41.939-23.178 0-41.967 18.777-41.967 41.94 0 23.161 18.79 41.937 41.967 41.937 23.178 0 41.968-18.776 41.968-41.938z"/>
            <path fill="#FEFEFE" d="M554.49 99.827c-7.118-1.393-11.96-5.866-13.135-12.832h11.448c.953 2.786 3.3 4.179 6.676 4.179 3.082 0 5.21-1.466 5.21-3.887 0-2.273-1.394-3.152-4.402-3.886l-7.265-1.686c-6.017-1.467-10.86-4.693-10.86-12.246 0-7.04 4.916-12.099 12.328-13.345v-6.673h9.392v6.893c6.678 1.54 10.493 6.086 11.594 12.245h-10.86c-.954-2.2-2.935-3.813-6.237-3.813-3.01 0-4.99 1.467-4.99 3.667 0 1.98 1.247 2.933 3.522 3.52l7.999 1.98c7.19 1.76 11.08 5.792 11.08 12.612 0 7.26-4.99 11.952-12.108 13.345v6.893h-9.392v-6.966z"/>
            <path stroke="#3D62AD" stroke-linecap="round" stroke-linejoin="round" stroke-width="3" d="M554.49 99.827c-7.118-1.393-11.96-5.866-13.135-12.832h11.448c.953 2.786 3.3 4.179 6.676 4.179 3.082 0 5.21-1.466 5.21-3.887 0-2.273-1.394-3.152-4.402-3.886l-7.265-1.686c-6.017-1.467-10.86-4.693-10.86-12.246 0-7.04 4.916-12.099 12.328-13.345v-6.673h9.392v6.893c6.678 1.54 10.493 6.086 11.594 12.245h-10.86c-.954-2.2-2.935-3.813-6.237-3.813-3.01 0-4.99 1.467-4.99 3.667 0 1.98 1.247 2.933 3.522 3.52l7.999 1.98c7.19 1.76 11.08 5.792 11.08 12.612 0 7.26-4.99 11.952-12.108 13.345v6.893h-9.392v-6.966z"/>
            <path fill="#668FC9" d="M473.485 23.936H446.46a5.377 5.377 0 0 0-5.38 5.375v26.988c0 1.284 1.698 1.743 2.347.634l3.792-6.497a56.408 56.408 0 0 1 20.198-20.228l6.706-3.93c1.107-.648.646-2.342-.638-2.342M673.622 56.309V29.302a5.378 5.378 0 0 0-5.38-5.376h-27.007c-1.284 0-1.744 1.698-.633 2.345l6.5 3.79a56.397 56.397 0 0 1 20.242 20.185l3.933 6.699c.649 1.107 2.345.647 2.345-.636M473.485 134.54H446.46a5.377 5.377 0 0 1-5.38-5.376v-26.988c0-1.284 1.698-1.743 2.347-.633l3.792 6.496a56.408 56.408 0 0 0 20.198 20.228l6.706 3.929c1.107.649.646 2.343-.638 2.343M673.622 102.166v27.008a5.377 5.377 0 0 1-5.38 5.375h-27.007c-1.284 0-1.744-1.697-.633-2.344l6.5-3.79a56.411 56.411 0 0 0 20.242-20.185l3.933-6.7c.649-1.107 2.345-.647 2.345.636"/>
            <path stroke="#3D62AD" stroke-linecap="round" stroke-linejoin="round" stroke-width="3" d="M567.444 64.813c-1.506-4.4-8.44-5.038-8.44-5.038s-11.034-.089-11.034 8.624c0 8.712 12.26 10.438 12.26 10.438s9.809.815 9.809 8.075c0 9.803-11.443 8.714-11.443 8.714s-4.905.09-9.354-4.357"/>
            <path fill="#E4DBD7" d="M485.905 146.148l5.917-11.701s-2.237-4.66-10.062 8.468"/>
            <path stroke="#3D62AD" stroke-linecap="round" stroke-linejoin="round" stroke-width="3" d="M485.905 146.148l5.917-11.701s-2.237-4.66-10.062 8.468"/>
            <path fill="#E4DBD7" d="M622.674 146.148l-5.916-11.701s2.236-4.66 10.061 8.468"/>
            <path stroke="#3D62AD" stroke-linecap="round" stroke-linejoin="round" stroke-width="3" d="M622.674 146.148l-5.916-11.701s2.236-4.66 10.061 8.468"/>
            <path fill="#FEFEFE" d="M689.656 319.057V302.72"/>
            <path stroke="#3D62AD" stroke-linecap="round" stroke-linejoin="round" stroke-width="3" d="M689.656 319.057V302.72"/>
            <path fill="#FEFEFE" d="M704.482 281.425a19.203 19.203 0 0 1 9.065-2.274h28.212c2.598 0 11.356 3.958 17.227 8.546l50.465 38.308.105.074c4.164 2.961 6.79 7.546 7.207 12.577.416 5.03-1.423 9.966-5.046 13.542-.116.114-.233.225-.353.333L769.49 395.46l-10.657-11.443 35.228-43.666-31.786-22.03-6.053 69.001c-.074 1.322-1.622 2.367-3.507 2.367h-54.193c-1.885 0-3.434-1.045-3.507-2.367l-5.36-68.264-29.964 19.445 34.189 44.405-11.31 11.426-39.97-44.561c-.114-.109-.225-.22-.333-.332-3.398-3.565-5.031-8.393-4.48-13.246.55-4.852 3.227-9.209 7.34-11.95l.103-.068 52.853-39.327 6.398-3.424z"/>
            <path stroke="#3D62AD" stroke-linecap="round" stroke-linejoin="round" stroke-width="3" d="M704.482 281.425a19.203 19.203 0 0 1 9.065-2.274h28.212c2.598 0 11.356 3.958 17.227 8.546l50.465 38.308.105.074c4.164 2.961 6.79 7.546 7.207 12.577.416 5.03-1.423 9.966-5.046 13.542-.116.114-.233.225-.353.333L769.49 395.46l-10.657-11.443 35.228-43.666-31.786-22.03-6.053 69.001c-.074 1.322-1.622 2.367-3.507 2.367h-54.193c-1.885 0-3.434-1.045-3.507-2.367l-5.36-68.264-29.964 19.445 34.189 44.405-11.31 11.426-39.97-44.561c-.114-.109-.225-.22-.333-.332-3.398-3.565-5.031-8.393-4.48-13.246.55-4.852 3.227-9.209 7.34-11.95l.103-.068 52.853-39.327 6.398-3.424z"/>
            <path fill="#BFB19F" d="M730.625 430.187l10.717 137.01h16.472V415.502h-63.933v151.695h16.472l9.262-130.86c.715-5.682 10.49-10.06 16.634-10.06h4.102"/>
            <path stroke="#3D62AD" stroke-linecap="round" stroke-linejoin="round" stroke-width="3" d="M730.625 430.187l10.717 137.01h16.472V415.502h-63.933v151.695h16.472l9.262-130.86c.715-5.682 10.49-10.06 16.634-10.06h4.102"/>
            <path fill="#668FC9" d="M711.575 567.197v14.514c0 1.162-1.012 2.104-2.26 2.104h-34.412c-2.26 0-3.12-2.744-1.217-3.877l21.417-12.741h16.472z"/>
            <path stroke="#3D62AD" stroke-linecap="round" stroke-linejoin="round" stroke-width="3" d="M711.575 567.197v14.514c0 1.162-1.012 2.104-2.26 2.104h-34.412c-2.26 0-3.12-2.744-1.217-3.877l21.417-12.741h16.472z"/>
            <path fill="#668FC9" d="M741.371 567.197v14.514c0 1.162 1.012 2.104 2.26 2.104h34.412c2.26 0 3.12-2.744 1.217-3.877l-21.417-12.741h-16.472z"/>
            <path stroke="#3D62AD" stroke-linecap="round" stroke-linejoin="round" stroke-width="3" d="M741.371 567.197v14.514c0 1.162 1.012 2.104 2.26 2.104h34.412c2.26 0 3.12-2.744 1.217-3.877l-21.417-12.741h-16.472z"/>
            <path fill="#BFB19F" d="M713.322 273.227v7.743l1.523 1.15c6.254 4.726 15.218 4.696 21.436-.072l1.407-1.078v-7.743"/>
            <path stroke="#3D62AD" stroke-linecap="round" stroke-linejoin="round" stroke-width="3" d="M713.322 273.227v7.743l1.523 1.15c6.254 4.726 15.218 4.696 21.436-.072l1.407-1.078v-7.743"/>
            <path fill="#51BC86" d="M757.814 389.688l7.892 118.1H687.24l5.775-118.1z"/>
            <path stroke="#3D62AD" stroke-linecap="round" stroke-linejoin="round" stroke-width="3" d="M757.814 389.688l7.892 118.1H687.24l5.775-118.1z"/>
            <path fill="#8EAFDB" d="M752.906 395.458h-53.898a3.99 3.99 0 0 1-3.991-3.99v-.157a3.99 3.99 0 0 1 3.99-3.99h53.899a3.992 3.992 0 0 1 3.993 3.99v.157a3.992 3.992 0 0 1-3.993 3.99"/>
            <path stroke="#3D62AD" stroke-linecap="round" stroke-linejoin="round" stroke-width="3" d="M752.906 395.458h-53.898a3.99 3.99 0 0 1-3.991-3.99v-.157a3.99 3.99 0 0 1 3.99-3.99h53.899a3.992 3.992 0 0 1 3.993 3.99v.157a3.992 3.992 0 0 1-3.993 3.99z"/>
            <path fill="#BFB19F" d="M752.083 231.717v17.701c0 25.815-22.713 28.906-26.27 28.906-3.559 0-26.272-3.09-26.272-28.906v-11.71l-4.036-20.78s5.318-12.183 7.978-12.54c2.66-.358 26.367-2.572 26.367-2.572l17.192 7.086s18.289 15.15 5.041 22.815"/>
            <path stroke="#3D62AD" stroke-linecap="round" stroke-linejoin="round" stroke-width="3" d="M752.083 231.717v17.701c0 25.815-22.713 28.906-26.27 28.906-3.559 0-26.272-3.09-26.272-28.906v-11.71l-4.036-20.78s5.318-12.183 7.978-12.54c2.66-.358 26.367-2.572 26.367-2.572l17.192 7.086s18.289 15.15 5.041 22.815z"/>
            <path fill="#3D62AD" d="M713.238 239.383a1.638 1.638 0 1 0-3.275.001 1.638 1.638 0 0 0 3.275 0M742.112 239.383a1.638 1.638 0 1 0-3.275.001 1.638 1.638 0 0 0 3.275 0"/>
            <path fill="#A6A8AB" d="M715.71 234.099a7.256 7.256 0 0 0-5.076-1.159 7.255 7.255 0 0 0-4.781 2.812"/>
            <path stroke="#6C6E70" stroke-linecap="round" stroke-linejoin="round" stroke-width="4" d="M715.71 234.099a7.256 7.256 0 0 0-5.076-1.159 7.255 7.255 0 0 0-4.781 2.812"/>
            <path fill="#A6A8AB" d="M737.184 234.099a7.258 7.258 0 0 1 5.077-1.159 7.257 7.257 0 0 1 4.781 2.812"/>
            <path stroke="#6C6E70" stroke-linecap="round" stroke-linejoin="round" stroke-width="4" d="M737.184 234.099a7.258 7.258 0 0 1 5.077-1.159 7.257 7.257 0 0 1 4.781 2.812"/>
            <path fill="#A6A8AB" d="M720.43 263.426c1.251.984 3.35 1.629 5.73 1.629 2.38 0 4.48-.645 5.732-1.63"/>
            <path stroke="#6C6E70" stroke-linecap="round" stroke-linejoin="round" stroke-width="3" d="M720.43 263.426c1.251.984 3.35 1.629 5.73 1.629 2.38 0 4.48-.645 5.732-1.63"/>
            <path stroke="#3D62AD" stroke-linecap="round" stroke-linejoin="round" stroke-width="3" d="M722.471 254.494c0 1.357 1.651 2.458 3.69 2.458 2.038 0 3.689-1.101 3.689-2.458"/>
            <path fill="#3D62AD" d="M702.368 264.995c-.661.765-1.262 1.585-2.144 2.081a5.838 5.838 0 0 1-5.453 3.758 5.84 5.84 0 0 1-5.842-5.839c0-.3.03-.59.073-.877-.024 0-.049.004-.073.004a5.841 5.841 0 0 1-5.843-5.839c0-.047.007-.094.007-.142a5.84 5.84 0 0 1-7.112-5.695 5.838 5.838 0 0 1 4.766-5.736 5.801 5.801 0 0 1-.914-3.126c0-.708.133-1.384.365-2.013-.121.008-.241.02-.365.02a5.834 5.834 0 1 1-.342-11.66 5.794 5.794 0 0 1-.263-5.29 5.84 5.84 0 0 1-5.236-5.805 5.84 5.84 0 0 1 5.841-5.839c.708 0 1.381.132 2.008.362-.007-.121-.018-.24-.018-.362a5.84 5.84 0 0 1 5.842-5.838c.072 0 .143.008.214.01a5.85 5.85 0 0 1-.214-1.545 5.841 5.841 0 0 1 5.24-5.808 5.874 5.874 0 0 1-.184-1.43 5.84 5.84 0 0 1 5.842-5.838c.756 0 1.477.147 2.14.41a5.839 5.839 0 0 1 5.753-4.85c1.853 0 3.501.866 4.572 2.212a5.813 5.813 0 0 1 5.786.792 5.838 5.838 0 0 1 9.762-2.717 5.832 5.832 0 0 1 8.19 1.691c.481-.128.984-.202 1.504-.202a5.832 5.832 0 0 1 4.92 2.698 5.833 5.833 0 0 1 4.919-2.698 5.843 5.843 0 0 1 5.722 4.655c.085-.003.168-.013.252-.013a5.84 5.84 0 0 1 5.52 3.936c.295-.046.595-.076.903-.076 2.25 0 4.198 1.27 5.174 3.132 2.507.658 4.358 2.93 4.358 5.641 0 .39-.04.774-.114 1.144a5.798 5.798 0 0 1 .715 4.725 5.84 5.84 0 0 1 5.24 5.808 5.815 5.815 0 0 1-1.97 4.364c.123.472.195.963.195 1.473 0 .984-.246 1.91-.676 2.723a5.835 5.835 0 0 1 3.819 5.47 5.835 5.835 0 0 1-4.443 5.663c.041.28.07.563.07.854a5.804 5.804 0 0 1-.95 3.184 5.809 5.809 0 0 1 1.632 4.04 5.838 5.838 0 0 1-3.6 5.392 5.835 5.835 0 0 1-3.266 4.334c.217.61.342 1.265.342 1.95a5.838 5.838 0 0 1-3.058 5.134c.14.503.222 1.03.222 1.578a5.84 5.84 0 0 1-5.843 5.839 5.837 5.837 0 0 1-5.821-5.423 5.764 5.764 0 0 1-.493-6.011l-.065-.063 1.807-7.412.302-12.542v-10.035a5.831 5.831 0 0 1-3.344-5.205 5.806 5.806 0 0 1-2.422.53 5.836 5.836 0 0 1-5.827-5.533 5.816 5.816 0 0 1-5.435-1.15 5.826 5.826 0 0 1-4.627 2.284 5.84 5.84 0 0 1-5.842-5.838c0-.138.011-.273.02-.41-.662.261-1.38.41-2.135.41a5.837 5.837 0 0 1-5.475-3.818 5.827 5.827 0 0 1-5.303 2.348l.002.031a5.84 5.84 0 0 1-5.842 5.839c-.508 0-.998-.072-1.468-.194a5.804 5.804 0 0 1-1.351 3.35 5.809 5.809 0 0 1 1.372 3.756 5.84 5.84 0 0 1-4.711 5.726 5.818 5.818 0 0 1-.154 8.694v5.89c.673.953.252 2.111.252 3.365 0 .76.67 1.484.406 2.15a5.793 5.793 0 0 1-.403 5.117s6.494 3.773 2.572 8.305"/>
            <path stroke="#3D62AD" stroke-linecap="round" stroke-linejoin="round" stroke-width="3" d="M702.368 264.995c-.661.765-1.262 1.585-2.144 2.081a5.838 5.838 0 0 1-5.453 3.758 5.84 5.84 0 0 1-5.842-5.839c0-.3.03-.59.073-.877-.024 0-.049.004-.073.004a5.841 5.841 0 0 1-5.843-5.839c0-.047.007-.094.007-.142a5.84 5.84 0 0 1-7.112-5.695 5.838 5.838 0 0 1 4.766-5.736 5.801 5.801 0 0 1-.914-3.126c0-.708.133-1.384.365-2.013-.121.008-.241.02-.365.02a5.834 5.834 0 1 1-.342-11.66 5.794 5.794 0 0 1-.263-5.29 5.84 5.84 0 0 1-5.236-5.805 5.84 5.84 0 0 1 5.841-5.839c.708 0 1.381.132 2.008.362-.007-.121-.018-.24-.018-.362a5.84 5.84 0 0 1 5.842-5.838c.072 0 .143.008.214.01a5.85 5.85 0 0 1-.214-1.545 5.841 5.841 0 0 1 5.24-5.808 5.874 5.874 0 0 1-.184-1.43 5.84 5.84 0 0 1 5.842-5.838c.756 0 1.477.147 2.14.41a5.839 5.839 0 0 1 5.753-4.85c1.853 0 3.501.866 4.572 2.212a5.813 5.813 0 0 1 5.786.792 5.838 5.838 0 0 1 9.762-2.717 5.832 5.832 0 0 1 8.19 1.691c.481-.128.984-.202 1.504-.202a5.832 5.832 0 0 1 4.92 2.698 5.833 5.833 0 0 1 4.919-2.698 5.843 5.843 0 0 1 5.722 4.655c.085-.003.168-.013.252-.013a5.84 5.84 0 0 1 5.52 3.936c.295-.046.595-.076.903-.076 2.25 0 4.198 1.27 5.174 3.132 2.507.658 4.358 2.93 4.358 5.641 0 .39-.04.774-.114 1.144a5.798 5.798 0 0 1 .715 4.725 5.84 5.84 0 0 1 5.24 5.808 5.815 5.815 0 0 1-1.97 4.364c.123.472.195.963.195 1.473 0 .984-.246 1.91-.676 2.723a5.835 5.835 0 0 1 3.819 5.47 5.835 5.835 0 0 1-4.443 5.663c.041.28.07.563.07.854a5.804 5.804 0 0 1-.95 3.184 5.809 5.809 0 0 1 1.632 4.04 5.838 5.838 0 0 1-3.6 5.392 5.835 5.835 0 0 1-3.266 4.334c.217.61.342 1.265.342 1.95a5.838 5.838 0 0 1-3.058 5.134c.14.503.222 1.03.222 1.578a5.84 5.84 0 0 1-5.843 5.839 5.837 5.837 0 0 1-5.821-5.423 5.764 5.764 0 0 1-.493-6.011l-.065-.063 1.807-7.412.302-12.542v-10.035a5.831 5.831 0 0 1-3.344-5.205 5.806 5.806 0 0 1-2.422.53 5.836 5.836 0 0 1-5.827-5.533 5.816 5.816 0 0 1-5.435-1.15 5.826 5.826 0 0 1-4.627 2.284 5.84 5.84 0 0 1-5.842-5.838c0-.138.011-.273.02-.41-.662.261-1.38.41-2.135.41a5.837 5.837 0 0 1-5.475-3.818 5.827 5.827 0 0 1-5.303 2.348l.002.031a5.84 5.84 0 0 1-5.842 5.839c-.508 0-.998-.072-1.468-.194a5.804 5.804 0 0 1-1.351 3.35 5.809 5.809 0 0 1 1.372 3.756 5.84 5.84 0 0 1-4.711 5.726 5.818 5.818 0 0 1-.154 8.694v5.89c.673.953.252 2.111.252 3.365 0 .76.67 1.484.406 2.15a5.793 5.793 0 0 1-.403 5.117s6.494 3.773 2.572 8.305z"/>
            <path fill="#FEFEFE" d="M691.008 337.163l-2.703-33.97"/>
            <path stroke="#3D62AD" stroke-linecap="round" stroke-linejoin="round" stroke-width="3" d="M691.008 337.163l-2.703-33.97"/>
            <path fill="#FEFEFE" d="M762.114 319.895l1.37-17.172"/>
            <path stroke="#3D62AD" stroke-linecap="round" stroke-linejoin="round" stroke-width="3" d="M762.114 319.895l1.37-17.172"/>
            <path fill="#BFB19F" d="M685.525 391.348l1.554 21.889a2.439 2.439 0 0 0 4.863.033l1.441-16.984c.33-3.88.006-7.786-.956-11.558l-.072-.28-6.83 6.9"/>
            <path stroke="#3D62AD" stroke-linecap="round" stroke-linejoin="round" stroke-width="3" d="M685.525 391.348l1.554 21.889a2.439 2.439 0 0 0 4.863.033l1.441-16.984c.33-3.88.006-7.786-.956-11.558l-.072-.28-6.83 6.9"/>
            <path fill="#BFB19F" d="M766.106 392.234l-1.554 21.888a2.439 2.439 0 0 1-4.864.034l-1.44-16.985a34.813 34.813 0 0 1 .956-11.557l.071-.28 6.83 6.9"/>
            <path stroke="#3D62AD" stroke-linecap="round" stroke-linejoin="round" stroke-width="3" d="M766.106 392.234l-1.554 21.888a2.439 2.439 0 0 1-4.864.034l-1.44-16.985a34.813 34.813 0 0 1 .956-11.557l.071-.28 6.83 6.9"/>
            <path fill="#E4DBD7" d="M743.833 379.02l-4.011-4.633a1.602 1.602 0 0 0-1.712-.505l-5.885 1.71c-1.581.458-2.722-1.307-2.133-3.3l14.067-47.57 17.326 5.116-14.067 47.57c-.59 1.992-2.508 2.856-3.585 1.611"/>
            <path stroke="#3D62AD" stroke-linecap="round" stroke-linejoin="round" stroke-width="3" d="M743.833 379.02l-4.011-4.633a1.602 1.602 0 0 0-1.712-.505l-5.885 1.71c-1.581.458-2.722-1.307-2.133-3.3l14.067-47.57 17.326 5.116-14.067 47.57c-.59 1.992-2.508 2.856-3.585 1.611z"/>
            <path fill="#E4DBD7" d="M773.825 374.5l-5.901-1.66a1.603 1.603 0 0 0-1.706.52l-3.972 4.666c-1.066 1.253-2.992.406-3.598-1.581l-14.471-47.45 17.282-5.262 14.47 47.45c.606 1.986-.52 3.762-2.104 3.316"/>
            <path stroke="#3D62AD" stroke-linecap="round" stroke-linejoin="round" stroke-width="3" d="M773.825 374.5l-5.901-1.66a1.603 1.603 0 0 0-1.706.52l-3.972 4.666c-1.066 1.253-2.992.406-3.598-1.581l-14.471-47.45 17.282-5.262 14.47 47.45c.606 1.986-.52 3.762-2.104 3.316z"/>
            <path fill="#BFA885" d="M783.606 318.68c0-2.48 3.155-5.282 2.625-7.605-.544-2.397-4.616-3.554-5.66-5.717-1.062-2.198.56-6.097-.949-7.985-1.516-1.899-5.684-1.181-7.584-2.696-1.888-1.508-2.11-5.73-4.31-6.79-2.165-1.044-5.603 1.404-8.003.858-2.322-.527-4.355-4.237-6.839-4.237-2.482 0-4.515 3.71-6.839 4.237-2.399.546-5.837-1.902-8.002-.859-2.2 1.061-2.421 5.284-4.311 6.792-1.899 1.515-6.067.797-7.583 2.695-1.509 1.89.112 5.788-.948 7.986-1.044 2.163-5.116 3.319-5.662 5.716-.527 2.323 2.627 5.124 2.627 7.605 0 2.481-3.154 5.283-2.627 7.605.546 2.398 4.618 3.554 5.662 5.716 1.06 2.199-.561 6.098.949 7.987 1.515 1.897 5.684 1.18 7.582 2.695 1.89 1.507 2.112 5.73 4.312 6.792 2.164 1.043 5.602-1.405 8.001-.86 2.324.527 4.357 4.237 6.84 4.237 2.483 0 4.516-3.71 6.838-4.237 2.4-.545 5.838 1.903 8.002.859 2.201-1.06 2.424-5.284 4.312-6.791 1.9-1.516 6.068-.799 7.583-2.696 1.51-1.888-.113-5.787.95-7.986 1.043-2.162 5.115-3.318 5.66-5.716.529-2.322-2.626-5.124-2.626-7.605"/>
            <path stroke="#3D62AD" stroke-linecap="round" stroke-linejoin="round" stroke-width="3" d="M783.606 318.68c0-2.48 3.155-5.282 2.625-7.605-.544-2.397-4.616-3.554-5.66-5.717-1.062-2.198.56-6.097-.949-7.985-1.516-1.899-5.684-1.181-7.584-2.696-1.888-1.508-2.11-5.73-4.31-6.79-2.165-1.044-5.603 1.404-8.003.858-2.322-.527-4.355-4.237-6.839-4.237-2.482 0-4.515 3.71-6.839 4.237-2.399.546-5.837-1.902-8.002-.859-2.2 1.061-2.421 5.284-4.311 6.792-1.899 1.515-6.067.797-7.583 2.695-1.509 1.89.112 5.788-.948 7.986-1.044 2.163-5.116 3.319-5.662 5.716-.527 2.323 2.627 5.124 2.627 7.605 0 2.481-3.154 5.283-2.627 7.605.546 2.398 4.618 3.554 5.662 5.716 1.06 2.199-.561 6.098.949 7.987 1.515 1.897 5.684 1.18 7.582 2.695 1.89 1.507 2.112 5.73 4.312 6.792 2.164 1.043 5.602-1.405 8.001-.86 2.324.527 4.357 4.237 6.84 4.237 2.483 0 4.516-3.71 6.838-4.237 2.4-.545 5.838 1.903 8.002.859 2.201-1.06 2.424-5.284 4.312-6.791 1.9-1.516 6.068-.799 7.583-2.696 1.51-1.888-.113-5.787.95-7.986 1.043-2.162 5.115-3.318 5.66-5.716.529-2.322-2.626-5.124-2.626-7.605z"/>
            <path fill="#F0F0F1" d="M778.116 318.68c0-13.924-11.295-25.21-25.23-25.21-13.933 0-25.228 11.286-25.228 25.21 0 13.924 11.295 25.212 25.229 25.212s25.229-11.288 25.229-25.212"/>
            <path stroke="#3D62AD" stroke-linecap="round" stroke-linejoin="round" stroke-width="3" d="M778.116 318.68c0-13.924-11.295-25.21-25.23-25.21-13.933 0-25.228 11.286-25.228 25.21 0 13.924 11.295 25.212 25.229 25.212s25.229-11.288 25.229-25.212z"/>
            <path fill="#F0F0F1" d="M772.44 318.68c0-10.792-8.755-19.54-19.554-19.54-10.799 0-19.552 8.748-19.552 19.54 0 10.791 8.753 19.54 19.552 19.54 10.8 0 19.554-8.749 19.554-19.54"/>
            <path stroke="#3D62AD" stroke-linecap="round" stroke-linejoin="round" stroke-width="3" d="M772.44 318.68c0-10.792-8.755-19.54-19.554-19.54-10.799 0-19.552 8.748-19.552 19.54 0 10.791 8.753 19.54 19.552 19.54 10.8 0 19.554-8.749 19.554-19.54z"/>
            <path fill="#E4DBD7" d="M40.27 342.73s-25.843 14.48 0 25.7"/>
            <path stroke="#3D62AD" stroke-linecap="round" stroke-linejoin="round" stroke-width="3" d="M40.27 342.73s-25.843 14.48 0 25.7"/>
            <path fill="#E4DBD7" d="M246.18 368.43s25.841-14.48 0-25.7"/>
            <path stroke="#3D62AD" stroke-linecap="round" stroke-linejoin="round" stroke-width="3" d="M246.18 368.43s25.841-14.48 0-25.7"/>
            <path fill="#FEFEFE" d="M245.165 336.013l-72.314-67.942-1.702 1.798c-1.873-.992-3.282-.856-3.282-.856h-51.03l-2.28-1.114-72.615 66.974 15.265 16.05 48.566-46.123 3.47 96.873c.073 1.772 1.624 3.174 3.513 3.174h61.394c1.888 0 3.44-1.402 3.513-3.174l2.79-87.142v-10.112l49.331 47.535 15.381-15.94z"/>
            <path stroke="#3D62AD" stroke-linecap="round" stroke-linejoin="round" stroke-width="3" d="M245.165 336.013l-72.314-67.942-1.702 1.798c-1.873-.992-3.282-.856-3.282-.856h-51.03l-2.28-1.114-72.615 66.974 15.265 16.05 48.566-46.123 3.47 96.873c.073 1.772 1.624 3.174 3.513 3.174h61.394c1.888 0 3.44-1.402 3.513-3.174l2.79-87.142v-10.112l49.331 47.535 15.381-15.94z"/>
            <path fill="#51BC86" d="M128.706 267.9l13.366 52.109 13.047-52.11h17.677l6.637 26.453a34.732 34.732 0 0 1 1.045 8.457v90.988h-74.776v-91.605c0-1.5.202-2.993.602-4.44l8.253-29.852h14.149"/>
            <path stroke="#3D62AD" stroke-linecap="round" stroke-linejoin="round" stroke-width="3" d="M128.706 267.9l13.366 52.109 13.047-52.11h17.677l6.637 26.453a34.732 34.732 0 0 1 1.045 8.457v90.988h-74.776v-91.605c0-1.5.202-2.993.602-4.44l8.253-29.852h14.149"/>
            <path fill="#51BC86" d="M143.618 313.833l-5.868 23.596v56.368"/>
            <path stroke="#3D62AD" stroke-linecap="round" stroke-linejoin="round" stroke-width="3" d="M143.618 313.833l-5.868 23.596v56.368"/>
            <path fill="#51BC86" d="M141.99 418.966L127.7 566.242H111.2V403.18h64.049v163.062h-16.503l-13.89-140.765c-.717-6.108-5.897-10.713-12.051-10.713h-4.11"/>
            <path stroke="#3D62AD" stroke-linecap="round" stroke-linejoin="round" stroke-width="3" d="M141.99 418.966L127.7 566.242H111.2V403.18h64.049v163.062h-16.503l-13.89-140.765c-.717-6.108-5.897-10.713-12.051-10.713h-4.11"/>
            <path fill="#668FC9" d="M176.106 566.242v15.602a2.262 2.262 0 0 1-2.264 2.261h-34.475c-2.262 0-3.125-2.95-1.218-4.166l21.455-13.697h16.502z"/>
            <path stroke="#3D62AD" stroke-linecap="round" stroke-linejoin="round" stroke-width="3" d="M176.106 566.242v15.602a2.262 2.262 0 0 1-2.264 2.261h-34.475c-2.262 0-3.125-2.95-1.218-4.166l21.455-13.697h16.502z"/>
            <path fill="#668FC9" d="M127.673 566.242v15.602a2.262 2.262 0 0 1-2.263 2.261H90.934c-2.262 0-3.125-2.95-1.218-4.166l21.455-13.697h16.502z"/>
            <path stroke="#3D62AD" stroke-linecap="round" stroke-linejoin="round" stroke-width="3" d="M127.673 566.242v15.602a2.262 2.262 0 0 1-2.263 2.261H90.934c-2.262 0-3.125-2.95-1.218-4.166l21.455-13.697h16.502z"/>
            <path fill="#FEFEFE" d="M239.505 474.63H46.943a6.672 6.672 0 0 1-6.674-6.67V340.181c0-7.113 5.77-12.88 12.888-12.88h180.134c7.118 0 12.888 5.767 12.888 12.88v127.777a6.672 6.672 0 0 1-6.674 6.67"/>
            <path stroke="#3D62AD" stroke-linecap="round" stroke-linejoin="round" stroke-width="3" d="M239.505 474.63H46.943a6.672 6.672 0 0 1-6.674-6.67V340.181c0-7.113 5.77-12.88 12.888-12.88h180.134c7.118 0 12.888 5.767 12.888 12.88v127.777a6.672 6.672 0 0 1-6.674 6.67z"/>
            <path fill="#668FC9" d="M40.27 343.462v-11.605a4.556 4.556 0 0 1 4.557-4.554h196.795a4.556 4.556 0 0 1 4.557 4.554v11.605H40.27z"/>
            <path stroke="#3D62AD" stroke-linecap="round" stroke-linejoin="round" stroke-width="3" d="M40.27 343.462v-11.605a4.556 4.556 0 0 1 4.557-4.554h196.795a4.556 4.556 0 0 1 4.557 4.554v11.605H40.27z"/>
            <mask id="b" fill="#fff">
                <use xlink:href="#a"/>
            </mask>
            <path fill="#B3C8E3" d="M40.27 348.495h205.91v-5.765H40.27z" mask="url(#b)"/>
            <path stroke="#3D62AD" stroke-linecap="round" stroke-linejoin="round" stroke-width="3" d="M40.27 348.495h205.91v-5.765H40.27z" mask="url(#b)"/>
            <g mask="url(#b)">
                <path fill="#8EAFDB" d="M121.347 341.385v-3.802c0-1.958-1.438-3.544-3.212-3.544H85.892c-1.774 0-3.211 1.586-3.211 3.544v3.802"/>
                <path stroke="#3D62AD" stroke-linecap="round" stroke-linejoin="round" stroke-width="3" d="M121.347 341.385v-3.802c0-1.958-1.438-3.544-3.212-3.544H85.892c-1.774 0-3.211 1.586-3.211 3.544v3.802"/>
            </g>
            <g mask="url(#b)">
                <path fill="#8EAFDB" d="M165.256 341.385v-3.802c0-1.958-1.437-3.544-3.211-3.544h-32.243c-1.774 0-3.212 1.586-3.212 3.544v3.802"/>
                <path stroke="#3D62AD" stroke-linecap="round" stroke-linejoin="round" stroke-width="3" d="M165.256 341.385v-3.802c0-1.958-1.437-3.544-3.211-3.544h-32.243c-1.774 0-3.212 1.586-3.212 3.544v3.802"/>
            </g>
            <path fill="#C5B8A7" d="M54.362 335.382a3.198 3.198 0 0 0-6.397 0 3.198 3.198 0 0 0 6.397 0" mask="url(#b)"/>
            <path stroke="#3D62AD" stroke-linecap="round" stroke-linejoin="round" stroke-width="3" d="M54.362 335.382a3.198 3.198 0 0 0-6.397 0 3.198 3.198 0 0 0 6.397 0z" mask="url(#b)"/>
            <path fill="#C5B8A7" d="M64.88 335.382a3.198 3.198 0 1 0-6.397 0 3.198 3.198 0 0 0 6.396 0" mask="url(#b)"/>
            <path stroke="#3D62AD" stroke-linecap="round" stroke-linejoin="round" stroke-width="3" d="M64.88 335.382a3.198 3.198 0 1 0-6.397 0 3.198 3.198 0 0 0 6.396 0z" mask="url(#b)"/>
            <path fill="#C5B8A7" d="M76.166 335.382a3.198 3.198 0 1 0-6.397 0 3.198 3.198 0 0 0 6.397 0" mask="url(#b)"/>
            <path stroke="#3D62AD" stroke-linecap="round" stroke-linejoin="round" stroke-width="3" d="M76.166 335.382a3.198 3.198 0 1 0-6.397 0 3.198 3.198 0 0 0 6.397 0z" mask="url(#b)"/>
            <path fill="#92D6ED" d="M96.188 464.7H72.756V357.782l23.432 7.628z" mask="url(#b)"/>
            <path fill="#D5C3AA" d="M143.052 464.7h-23.431v-88.371l23.431 7.626z" mask="url(#b)"/>
            <path fill="#8EAFDB" d="M189.917 464.7h-23.433v-69.825l23.433 7.628z" mask="url(#b)"/>
            <path fill="#BFA885" d="M189.917 464.7h23.432v-44.72l-23.432 7.627zM143.052 464.7h23.432v-26.164l-23.432 7.626z" mask="url(#b)"/>
            <path fill="#668FC9" d="M96.188 464.7h23.432v-7.627zM166.484 357.783h23.433v44.72l-23.433-7.627z" mask="url(#b)"/>
            <path fill="#BFA782" d="M72.786 464.7H49.354v-69.825l23.432 7.628z" mask="url(#b)"/>
            <path fill="#8EAFDB" d="M49.353 357.783h23.432v44.72l-23.432-7.627z" mask="url(#b)"/>
            <path fill="#E4DBD7" d="M119.62 357.783h23.432v26.163l-23.432-7.626z" mask="url(#b)"/>
            <path fill="#668FC9" d="M72.755 357.783h23.432v7.626z" mask="url(#b)"/>
            <path fill="#3D62AD" d="M119.62 357.783H96.187V464.7l23.433-7.627z" mask="url(#b)"/>
            <path fill="#65C1ED" d="M166.484 357.783h-23.431v88.37l23.431-7.626z" mask="url(#b)"/>
            <path fill="#B3C8E3" d="M213.35 464.7h23.432v-26.164l-23.431 7.626z" mask="url(#b)"/>
            <path fill="#92D6ED" d="M236.783 357.783H213.35v88.37l23.432-7.626z" mask="url(#b)"/>
            <path fill="#26469D" d="M213.35 357.783h-23.433v69.824l23.432-7.627z" mask="url(#b)"/>
            <path stroke="#3D62AD" stroke-linecap="round" stroke-linejoin="round" stroke-width="3" d="M47.965 464.7h188.818V357.782H47.965z" mask="url(#b)"/>
            <path fill="#E4DBD7" d="M155.067 270.526c-3.112 4.255-7.79 8.369-13.019 8.369-5.294 0-10.022-4.181-13.132-8.526l.633-15.3h25.518v15.457z" mask="url(#b)"/>
            <path stroke="#3D62AD" stroke-linecap="round" stroke-linejoin="round" stroke-width="3" d="M155.067 270.526c-3.112 4.255-7.79 8.369-13.019 8.369-5.294 0-10.022-4.181-13.132-8.526l.633-15.3h25.518v15.457z" mask="url(#b)"/>
            <g mask="url(#b)">
                <path fill="#E4DBD7" d="M168.56 236.928c2.339 0 4.235-2.77 4.235-6.183 0-3.415-1.896-6.183-4.236-6.183"/>
                <path stroke="#3D62AD" stroke-linecap="round" stroke-linejoin="round" stroke-width="3" d="M168.56 236.928c2.339 0 4.235-2.77 4.235-6.183 0-3.415-1.896-6.183-4.236-6.183"/>
            </g>
            <g mask="url(#b)">
                <path fill="#E4DBD7" d="M114.557 224.562c-2.34 0-4.236 2.768-4.236 6.182 0 3.415 1.897 6.183 4.236 6.183"/>
                <path stroke="#3D62AD" stroke-linecap="round" stroke-linejoin="round" stroke-width="3" d="M114.557 224.562c-2.34 0-4.236 2.768-4.236 6.182 0 3.415 1.897 6.183 4.236 6.183"/>
            </g>
            <path fill="#E4DBD7" d="M114.621 210.164V237.733c0 16.69 19.737 27.206 25.346 27.206h3.247c5.608 0 25.345-10.516 25.345-27.206V210.164l2.886-14.161-21.429-6.652-24.479-8.685s-18.77 22.097-10.916 29.498" mask="url(#b)"/>
            <path stroke="#3D62AD" stroke-linecap="round" stroke-linejoin="round" stroke-width="3" d="M114.621 210.164V237.733c0 16.69 19.737 27.206 25.346 27.206h3.247c5.608 0 25.345-10.516 25.345-27.206V210.164l2.886-14.161-21.429-6.652-24.479-8.685s-18.77 22.097-10.916 29.498z" mask="url(#b)"/>
            <path fill="#3D62AD" d="M129.55 224.832a1.685 1.685 0 1 0-1.685 1.684c.93 0 1.684-.754 1.684-1.684M157.574 224.832a1.685 1.685 0 1 0-1.685 1.684c.93 0 1.685-.754 1.685-1.684" mask="url(#b)"/>
            <path stroke="#668FC9" stroke-linecap="round" stroke-linejoin="round" stroke-width="3" d="M132.093 216.774c-1.284-.505-2.952-.752-4.752-.629-1.928.134-3.645.666-4.866 1.42M151.997 216.774c1.284-.505 2.951-.752 4.752-.629 1.928.134 3.645.666 4.866 1.42M136.106 249.22c1.288 1.452 3.447 2.404 5.897 2.404 2.449 0 4.609-.952 5.897-2.404" mask="url(#b)"/>
            <path fill="#B3C8E3" d="M185.116 205.328c0-2.39-1.23-4.49-3.091-5.708.483-.792.766-1.72.766-2.714a5.23 5.23 0 0 0-5.233-5.23l-.04.002c.024-.262.04-.525.04-.794 0-4.967-4.029-8.992-8.998-8.992-.772 0-1.517.107-2.232.29a5.23 5.23 0 0 0-8.208-3.778 5.237 5.237 0 0 0-3.94-3.544 5.235 5.235 0 0 0-4.987-3.648 5.22 5.22 0 0 0-4.12 2.013 5.216 5.216 0 0 0-6.942.72 8.972 8.972 0 0 0-6.657-2.954c-4.482 0-8.19 3.277-8.875 7.565a8.953 8.953 0 0 0-4.315-1.102c-4.605 0-8.396 3.46-8.929 7.918a5.23 5.23 0 0 0-7.21 4.84 5.2 5.2 0 0 0 .753 2.693c-3.802 1.05-6.596 4.525-6.596 8.659a8.984 8.984 0 0 0 4.58 7.829 6.86 6.86 0 0 0-.397 2.285 6.87 6.87 0 0 0 2.736 5.486 5.196 5.196 0 0 0-1.075 3.165 5.225 5.225 0 0 0 2.986 4.718 5.23 5.23 0 0 0 5.207 5.74 5.23 5.23 0 0 0 5.232-5.228l-.678-11.725c1.742-.849 2.95-2.618 2.95-4.684a5.206 5.206 0 0 0-1.203-3.335 5.16 5.16 0 0 0 .335-1.411c4.69-.31 8.402-4.198 8.402-8.963 0-.153-.015-.302-.023-.453a7.263 7.263 0 0 0 2.51.453c3.662 0 6.685-2.701 7.203-6.218.636 4.344 4.369 7.683 8.893 7.683a8.971 8.971 0 0 0 3.02-.53 7.284 7.284 0 0 0 7.222 6.35 7.269 7.269 0 0 0 5.232-2.218 7.283 7.283 0 0 0 6.33 3.681s-2.811 2.996-1.687 6.087c1.125 3.091 4.483 4.103 4.483 4.103l-.738 9.417a5.23 5.23 0 0 0 5.232 5.228 5.231 5.231 0 0 0 5.233-5.228 5.204 5.204 0 0 0-1.42-3.574 5.232 5.232 0 0 0 4.175-5.121 5.2 5.2 0 0 0-1.074-3.165c2.957-.75 5.148-3.42 5.148-6.608" mask="url(#b)"/>
            <path stroke="#3D62AD" stroke-linecap="round" stroke-linejoin="round" stroke-width="3" d="M185.116 205.328c0-2.39-1.23-4.49-3.091-5.708.483-.792.766-1.72.766-2.714a5.23 5.23 0 0 0-5.233-5.23l-.04.002c.024-.262.04-.525.04-.794 0-4.967-4.029-8.992-8.998-8.992-.772 0-1.517.107-2.232.29a5.23 5.23 0 0 0-8.208-3.778 5.237 5.237 0 0 0-3.94-3.544 5.235 5.235 0 0 0-4.987-3.648 5.22 5.22 0 0 0-4.12 2.013 5.216 5.216 0 0 0-6.942.72 8.972 8.972 0 0 0-6.657-2.954c-4.482 0-8.19 3.277-8.875 7.565a8.953 8.953 0 0 0-4.315-1.102c-4.605 0-8.396 3.46-8.929 7.918a5.23 5.23 0 0 0-7.21 4.84 5.2 5.2 0 0 0 .753 2.693c-3.802 1.05-6.596 4.525-6.596 8.659a8.984 8.984 0 0 0 4.58 7.829 6.86 6.86 0 0 0-.397 2.285 6.87 6.87 0 0 0 2.736 5.486 5.196 5.196 0 0 0-1.075 3.165 5.225 5.225 0 0 0 2.986 4.718 5.23 5.23 0 0 0 5.207 5.74 5.23 5.23 0 0 0 5.232-5.228l-.678-11.725c1.742-.849 2.95-2.618 2.95-4.684a5.206 5.206 0 0 0-1.203-3.335 5.16 5.16 0 0 0 .335-1.411c4.69-.31 8.402-4.198 8.402-8.963 0-.153-.015-.302-.023-.453a7.263 7.263 0 0 0 2.51.453c3.662 0 6.685-2.701 7.203-6.218.636 4.344 4.369 7.683 8.893 7.683a8.971 8.971 0 0 0 3.02-.53 7.284 7.284 0 0 0 7.222 6.35 7.269 7.269 0 0 0 5.232-2.218 7.283 7.283 0 0 0 6.33 3.681s-2.811 2.996-1.687 6.087c1.125 3.091 4.483 4.103 4.483 4.103l-.738 9.417a5.23 5.23 0 0 0 5.232 5.228 5.231 5.231 0 0 0 5.233-5.228 5.204 5.204 0 0 0-1.42-3.574 5.232 5.232 0 0 0 4.175-5.121 5.2 5.2 0 0 0-1.074-3.165c2.957-.75 5.148-3.42 5.148-6.608zM137.75 238.91a3.839 3.839 0 0 0 3.84 3.838c2.12 0 3.84-1.719 3.84-3.837v-6.716" mask="url(#b)"/>
            <path fill="#51BC86" d="M167.09 321.485h-6.934c-4.506 0-8.159-3.65-8.159-8.153v-11.616h23.251v11.616c0 4.503-3.652 8.153-8.158 8.153" mask="url(#b)"/>
            <path stroke="#3D62AD" stroke-linecap="round" stroke-linejoin="round" stroke-width="3" d="M167.09 321.485h-6.934c-4.506 0-8.159-3.65-8.159-8.153v-11.616h23.251v11.616c0 4.503-3.652 8.153-8.158 8.153z" mask="url(#b)"/>
            <g mask="url(#b)">
                <path fill="#51BC86" d="M151.997 308.199h23.251"/>
                <path stroke="#3D62AD" stroke-linecap="round" stroke-linejoin="round" stroke-width="3" d="M151.997 308.199h23.251"/>
            </g>
            <path fill="#51BC86" d="M125.942 321.485h-6.934c-4.507 0-8.159-3.65-8.159-8.153v-11.616H134.1v11.616c0 4.503-3.653 8.153-8.158 8.153" mask="url(#b)"/>
            <path stroke="#3D62AD" stroke-linecap="round" stroke-linejoin="round" stroke-width="3" d="M125.942 321.485h-6.934c-4.507 0-8.159-3.65-8.159-8.153v-11.616H134.1v11.616c0 4.503-3.653 8.153-8.158 8.153z" mask="url(#b)"/>
            <g mask="url(#b)">
                <path fill="#51BC86" d="M110.849 308.199H134.1"/>
                <path stroke="#3D62AD" stroke-linecap="round" stroke-linejoin="round" stroke-width="3" d="M110.849 308.199H134.1"/>
            </g>
            <g mask="url(#b)">
                <path fill="#E4DBD7" d="M36.86 352.044l12.024 5.172a6.894 6.894 0 0 1 3.938 8.114c-.989 3.697-4.793 5.866-8.492 4.871-3.488-.938-7.476-2.463-9.804-4.848"/>
                <path stroke="#3D62AD" stroke-linecap="round" stroke-linejoin="round" stroke-width="3" d="M36.86 352.044l12.024 5.172a6.894 6.894 0 0 1 3.938 8.114c-.989 3.697-4.793 5.866-8.492 4.871-3.488-.938-7.476-2.463-9.804-4.848"/>
            </g>
            <g mask="url(#b)">
                <path fill="#E4DBD7" d="M248.381 352.044l-12.023 5.172a6.894 6.894 0 0 0-3.937 8.114c.988 3.697 4.793 5.866 8.491 4.871 3.488-.938 7.476-2.463 9.804-4.848"/>
                <path stroke="#3D62AD" stroke-linecap="round" stroke-linejoin="round" stroke-width="3" d="M248.381 352.044l-12.023 5.172a6.894 6.894 0 0 0-3.937 8.114c.988 3.697 4.793 5.866 8.491 4.871 3.488-.938 7.476-2.463 9.804-4.848"/>
            </g>
        </g>
    </g>
</svg>
